<?xml version="1.0" standalone="no"?>
<!DOCTYPE svg PUBLIC "-//W3C//DTD SVG 1.1//EN"
"http://www.w3.org/Graphics/SVG/1.1/DTD/svg11.dtd">

<svg width="748" height="1036" view_box="0 0 748 1036"
xmlns="http://www.w3.org/2000/svg"
xmlns:link="http://www.w3.org/1999/xlink">\n\n<desc>Généré par Mocodo 2.3.7 le Tue, 21 Apr 2020 01:38:38</desc>

<rect id="frame" x="0" y="0" width="748" height="1036" fill="#ffffbf" stroke="none" stroke-width="0"/>

<!-- Association QUALIFIE -->
<line x1="446" y1="321" x2="78" y2="195" stroke="#74add1" stroke-width="2"/>
<text x="370" y="318.208665501" fill="#d73027" font-family="Verdana" font-size="12">1,1</text>
<line x1="78" y1="77" x2="78" y2="195" stroke="#74add1" stroke-width="2"/>
<text x="83.0" y="128" fill="#d73027" font-family="Verdana" font-size="12">1,N</text>
<g id="association-QUALIFIE">
	<path d="M 101 170 a 14 14 90 0 1 14 14 V 195 h -74 V 184 a 14 14 90 0 1 14 -14" fill="#abd9e9" stroke="#abd9e9" stroke-width="0"/>
	<path d="M 115 195.0 v 11 a 14 14 90 0 1 -14 14 H 55 a 14 14 90 0 1 -14 -14 V 195.0 H 74" fill="#e0f3f8" stroke="#e0f3f8" stroke-width="0"/>
	<rect x="41" y="170" width="74" height="50" fill="none" rx="14" stroke="#74add1" stroke-width="2"/>
	<line x1="41" y1="195" x2="115" y2="195" stroke="#74add1" stroke-width="1"/>
	<text x="48" y="187.7" fill="#000000" font-family="Verdana" font-size="12">QUALIFIE</text>
</g>

<!-- Association COMPOSE -->
<path d="M325 699 C 277.0 732.333333333 237.0 732.333333333 205 699" fill="none" stroke="#74add1" stroke-width="2"/>
<text x="248" y="714.0" fill="#d73027" font-family="Verdana" font-size="12">0,N</text>
<path d="M325 699 C 277.0 665.666666667 237.0 665.666666667 205 699" fill="none" stroke="#74add1" stroke-width="2"/>
<text x="248" y="693.0" fill="#d73027" font-family="Verdana" font-size="12">1,N</text>
<g id="association-COMPOSE">
	<path d="M 229 674 a 14 14 90 0 1 14 14 V 699 h -76 V 688 a 14 14 90 0 1 14 -14" fill="#abd9e9" stroke="#abd9e9" stroke-width="0"/>
	<path d="M 243 699.0 v 11 a 14 14 90 0 1 -14 14 H 181 a 14 14 90 0 1 -14 -14 V 699.0 H 76" fill="#e0f3f8" stroke="#e0f3f8" stroke-width="0"/>
	<rect x="167" y="674" width="76" height="50" fill="none" rx="14" stroke="#74add1" stroke-width="2"/>
	<line x1="167" y1="699" x2="243" y2="699" stroke="#74add1" stroke-width="1"/>
	<text x="174" y="691.7" fill="#000000" font-family="Verdana" font-size="12">COMPOSE</text>
</g>

<!-- Association CHIFFRE -->
<line x1="446" y1="321" x2="562" y2="321" stroke="#74add1" stroke-width="2"/>
<text x="501" y="338.0" fill="#d73027" font-family="Verdana" font-size="12">1,1</text>
<line x1="677" y1="321" x2="562" y2="321" stroke="#74add1" stroke-width="2"/>
<text x="614" y="313.0" fill="#d73027" font-family="Verdana" font-size="12">1,N</text>
<g id="association-CHIFFRE">
	<path d="M 582 296 a 14 14 90 0 1 14 14 V 321 h -68 V 310 a 14 14 90 0 1 14 -14" fill="#abd9e9" stroke="#abd9e9" stroke-width="0"/>
	<path d="M 596 321.0 v 11 a 14 14 90 0 1 -14 14 H 542 a 14 14 90 0 1 -14 -14 V 321.0 H 68" fill="#e0f3f8" stroke="#e0f3f8" stroke-width="0"/>
	<rect x="528" y="296" width="68" height="50" fill="none" rx="14" stroke="#74add1" stroke-width="2"/>
	<line x1="528" y1="321" x2="596" y2="321" stroke="#74add1" stroke-width="1"/>
	<text x="535" y="313.7" fill="#000000" font-family="Verdana" font-size="12">CHIFFRE</text>
</g>

<!-- Association CONSTITUE -->
<line x1="325" y1="699" x2="446" y2="573" stroke="#74add1" stroke-width="2"/>
<text x="380" y="657.065270044" fill="#d73027" font-family="Verdana" font-size="12">1,N</text>
<line x1="446" y1="321" x2="446" y2="573" stroke="#74add1" stroke-width="2"/>
<text x="451.0" y="414" fill="#d73027" font-family="Verdana" font-size="12">0,N</text>
<g id="association-CONSTITUE">
	<path d="M 475 548 a 14 14 90 0 1 14 14 V 573 h -86 V 562 a 14 14 90 0 1 14 -14" fill="#abd9e9" stroke="#abd9e9" stroke-width="0"/>
	<path d="M 489 573.0 v 11 a 14 14 90 0 1 -14 14 H 417 a 14 14 90 0 1 -14 -14 V 573.0 H 86" fill="#e0f3f8" stroke="#e0f3f8" stroke-width="0"/>
	<rect x="403" y="548" width="86" height="50" fill="none" rx="14" stroke="#74add1" stroke-width="2"/>
	<line x1="403" y1="573" x2="489" y2="573" stroke="#74add1" stroke-width="1"/>
	<text x="410" y="565.7" fill="#000000" font-family="Verdana" font-size="12">CONSTITUE</text>
	<text x="410" y="590.8" fill="#000000" font-family="Verdana" font-size="12">tarif</text>
</g>

<!-- Association FOURNIT -->
<line x1="325" y1="699" x2="325" y2="825" stroke="#74add1" stroke-width="2"/>
<text x="330.0" y="792" fill="#d73027" font-family="Verdana" font-size="12">1,N</text>
<line x1="325" y1="951" x2="325" y2="825" stroke="#74add1" stroke-width="2"/>
<text x="330.0" y="867" fill="#d73027" font-family="Verdana" font-size="12">1,N</text>
<g id="association-FOURNIT">
	<path d="M 346 800 a 14 14 90 0 1 14 14 V 825 h -70 V 814 a 14 14 90 0 1 14 -14" fill="#abd9e9" stroke="#abd9e9" stroke-width="0"/>
	<path d="M 360 825.0 v 11 a 14 14 90 0 1 -14 14 H 304 a 14 14 90 0 1 -14 -14 V 825.0 H 70" fill="#e0f3f8" stroke="#e0f3f8" stroke-width="0"/>
	<rect x="290" y="800" width="70" height="50" fill="none" rx="14" stroke="#74add1" stroke-width="2"/>
	<line x1="290" y1="825" x2="360" y2="825" stroke="#74add1" stroke-width="1"/>
	<text x="297" y="817.7" fill="#000000" font-family="Verdana" font-size="12">FOURNIT</text>
</g>

<!-- Association ALIMENTE -->
<line x1="325" y1="699" x2="446" y2="699" stroke="#74add1" stroke-width="2"/>
<text x="380" y="716.0" fill="#d73027" font-family="Verdana" font-size="12">0,N</text>
<line x1="562" y1="825" x2="446" y2="699" stroke="#74add1" stroke-width="2"/>
<text x="521.675200169" y="775" fill="#d73027" font-family="Verdana" font-size="12">1,N</text>
<g id="association-ALIMENTE">
	<path d="M 471 674 a 14 14 90 0 1 14 14 V 699 h -78 V 688 a 14 14 90 0 1 14 -14" fill="#abd9e9" stroke="#abd9e9" stroke-width="0"/>
	<path d="M 485 699.0 v 11 a 14 14 90 0 1 -14 14 H 421 a 14 14 90 0 1 -14 -14 V 699.0 H 78" fill="#e0f3f8" stroke="#e0f3f8" stroke-width="0"/>
	<rect x="407" y="674" width="78" height="50" fill="none" rx="14" stroke="#74add1" stroke-width="2"/>
	<line x1="407" y1="699" x2="485" y2="699" stroke="#74add1" stroke-width="1"/>
	<text x="414" y="691.7" fill="#000000" font-family="Verdana" font-size="12">ALIMENTE</text>
</g>

<!-- Association DEMANDE -->
<line x1="677" y1="321" x2="562" y2="447" stroke="#74add1" stroke-width="2"/>
<text x="614" y="359.058525798" fill="#d73027" font-family="Verdana" font-size="12">0,N</text>
<line x1="562" y1="825" x2="562" y2="447" stroke="#74add1" stroke-width="2"/>
<text x="567.0" y="775" fill="#d73027" font-family="Verdana" font-size="12">0,N</text>
<g id="association-DEMANDE">
	<path d="M 586 422 a 14 14 90 0 1 14 14 V 447 h -76 V 436 a 14 14 90 0 1 14 -14" fill="#abd9e9" stroke="#abd9e9" stroke-width="0"/>
	<path d="M 600 447.0 v 11 a 14 14 90 0 1 -14 14 H 538 a 14 14 90 0 1 -14 -14 V 447.0 H 76" fill="#e0f3f8" stroke="#e0f3f8" stroke-width="0"/>
	<rect x="524" y="422" width="76" height="50" fill="none" rx="14" stroke="#74add1" stroke-width="2"/>
	<line x1="524" y1="447" x2="600" y2="447" stroke="#74add1" stroke-width="1"/>
	<text x="531" y="439.7" fill="#000000" font-family="Verdana" font-size="12">DEMANDE</text>
</g>

<!-- Association EST_ETABLI -->
<line x1="677" y1="573" x2="677" y2="447" stroke="#74add1" stroke-width="2"/>
<text x="682.0" y="489" fill="#d73027" font-family="Verdana" font-size="12">0,N</text>
<line x1="677" y1="321" x2="677" y2="447" stroke="#74add1" stroke-width="2"/>
<text x="682.0" y="406" fill="#d73027" font-family="Verdana" font-size="12">1,1</text>
<g id="association-EST_ETABLI">
	<path d="M 708 422 a 14 14 90 0 1 14 14 V 447 h -90 V 436 a 14 14 90 0 1 14 -14" fill="#abd9e9" stroke="#abd9e9" stroke-width="0"/>
	<path d="M 722 447.0 v 11 a 14 14 90 0 1 -14 14 H 646 a 14 14 90 0 1 -14 -14 V 447.0 H 90" fill="#e0f3f8" stroke="#e0f3f8" stroke-width="0"/>
	<rect x="632" y="422" width="90" height="50" fill="none" rx="14" stroke="#74add1" stroke-width="2"/>
	<line x1="632" y1="447" x2="722" y2="447" stroke="#74add1" stroke-width="1"/>
	<text x="639" y="439.7" fill="#000000" font-family="Verdana" font-size="12">EST_ETABLI</text>
</g>

<!-- Association PASSE -->
<line x1="325" y1="951" x2="446" y2="951" stroke="#74add1" stroke-width="2"/>
<text x="392" y="968.0" fill="#d73027" font-family="Verdana" font-size="12">0,N</text>
<line x1="562" y1="825" x2="446" y2="951" stroke="#74add1" stroke-width="2"/>
<text x="521.675200169" y="884" fill="#d73027" font-family="Verdana" font-size="12">1,1</text>
<g id="association-PASSE">
	<path d="M 459 926 a 14 14 90 0 1 14 14 V 951 h -54 V 940 a 14 14 90 0 1 14 -14" fill="#abd9e9" stroke="#abd9e9" stroke-width="0"/>
	<path d="M 473 951.0 v 11 a 14 14 90 0 1 -14 14 H 433 a 14 14 90 0 1 -14 -14 V 951.0 H 54" fill="#e0f3f8" stroke="#e0f3f8" stroke-width="0"/>
	<rect x="419" y="926" width="54" height="50" fill="none" rx="14" stroke="#74add1" stroke-width="2"/>
	<line x1="419" y1="951" x2="473" y2="951" stroke="#74add1" stroke-width="1"/>
	<text x="426" y="943.7" fill="#000000" font-family="Verdana" font-size="12">PASSE</text>
</g>

<!-- Association FIXE -->
<line x1="446" y1="321" x2="325" y2="321" stroke="#74add1" stroke-width="2"/>
<text x="369" y="338.0" fill="#d73027" font-family="Verdana" font-size="12">1,N</text>
<line x1="205" y1="321" x2="325" y2="321" stroke="#74add1" stroke-width="2"/>
<text x="252" y="338.0" fill="#d73027" font-family="Verdana" font-size="12">1,1</text>
<g id="association-FIXE">
	<path d="M 333 296 a 14 14 90 0 1 14 14 V 321 h -44 V 310 a 14 14 90 0 1 14 -14" fill="#abd9e9" stroke="#abd9e9" stroke-width="0"/>
	<path d="M 347 321.0 v 11 a 14 14 90 0 1 -14 14 H 317 a 14 14 90 0 1 -14 -14 V 321.0 H 44" fill="#e0f3f8" stroke="#e0f3f8" stroke-width="0"/>
	<rect x="303" y="296" width="44" height="50" fill="none" rx="14" stroke="#74add1" stroke-width="2"/>
	<line x1="303" y1="321" x2="347" y2="321" stroke="#74add1" stroke-width="1"/>
	<text x="310" y="313.7" fill="#000000" font-family="Verdana" font-size="12">FIXE</text>
</g>

<!-- Association TYPE -->
<line x1="446" y1="77" x2="446" y2="195" stroke="#74add1" stroke-width="2"/>
<text x="451.0" y="162" fill="#d73027" font-family="Verdana" font-size="12">1,N</text>
<line x1="446" y1="321" x2="446" y2="195" stroke="#74add1" stroke-width="2"/>
<text x="451.0" y="237" fill="#d73027" font-family="Verdana" font-size="12">1,1</text>
<g id="association-TYPE">
	<path d="M 455 170 a 14 14 90 0 1 14 14 V 195 h -46 V 184 a 14 14 90 0 1 14 -14" fill="#abd9e9" stroke="#abd9e9" stroke-width="0"/>
	<path d="M 469 195.0 v 11 a 14 14 90 0 1 -14 14 H 437 a 14 14 90 0 1 -14 -14 V 195.0 H 46" fill="#e0f3f8" stroke="#e0f3f8" stroke-width="0"/>
	<rect x="423" y="170" width="46" height="50" fill="none" rx="14" stroke="#74add1" stroke-width="2"/>
	<line x1="423" y1="195" x2="469" y2="195" stroke="#74add1" stroke-width="1"/>
	<text x="430" y="187.7" fill="#000000" font-family="Verdana" font-size="12">TYPE</text>
</g>

<!-- Entity PARAMETRE -->
<g id="entity-PARAMETRE">
	<g id="frame-PARAMETRE">
		<rect x="163" y="287" width="84" height="25" fill="#fdae61" stroke="#fdae61" stroke-width="0"/>
		<rect x="163" y="312.0" width="84" height="43" fill="#fee090" stroke="#fee090" stroke-width="0"/>
		<rect x="163" y="287" width="84" height="68" fill="none" stroke="#f46d43" stroke-width="2"/>
		<line x1="163" y1="312" x2="247" y2="312" stroke="#f46d43" stroke-width="1"/>
	</g>
	<text x="168" y="304.7" fill="#000000" font-family="Verdana" font-size="12">PARAMETRE</text>
	<text x="168" y="329.8" fill="#000000" font-family="Verdana" font-size="12">id</text>
	<line x1="168" y1="332" x2="180" y2="332" stroke="#000000" stroke-width="1"/>
	<text x="168" y="346.8" fill="#000000" font-family="Verdana" font-size="12">taux_marge</text>
</g>

<!-- Entity FOURNISSEUR -->
<g id="entity-FOURNISSEUR">
	<g id="frame-FOURNISSEUR">
		<rect x="263" y="875" width="124" height="25" fill="#fdae61" stroke="#fdae61" stroke-width="0"/>
		<rect x="263" y="900.0" width="124" height="127" fill="#fee090" stroke="#fee090" stroke-width="0"/>
		<rect x="263" y="875" width="124" height="152" fill="none" stroke="#f46d43" stroke-width="2"/>
		<line x1="263" y1="900" x2="387" y2="900" stroke="#f46d43" stroke-width="1"/>
	</g>
	<text x="280" y="892.7" fill="#000000" font-family="Verdana" font-size="12">FOURNISSEUR</text>
	<text x="268" y="917.7" fill="#000000" font-family="Verdana" font-size="12">id</text>
	<line x1="268" y1="920" x2="280" y2="920" stroke="#000000" stroke-width="1"/>
	<text x="268" y="934.7" fill="#000000" font-family="Verdana" font-size="12">denomination</text>
	<text x="268" y="951.8" fill="#000000" font-family="Verdana" font-size="12">comp_destinataire</text>
	<text x="268" y="968.8" fill="#000000" font-family="Verdana" font-size="12">com_geo</text>
	<text x="268" y="985.8" fill="#000000" font-family="Verdana" font-size="12">rue</text>
	<text x="268" y="1002.8" fill="#000000" font-family="Verdana" font-size="12">cp</text>
	<text x="268" y="1019.8" fill="#000000" font-family="Verdana" font-size="12">ville</text>
</g>

<!-- Entity NATURE -->
<g id="entity-NATURE">
	<g id="frame-NATURE">
		<rect x="48" y="43" width="60" height="25" fill="#fdae61" stroke="#fdae61" stroke-width="0"/>
		<rect x="48" y="68.0" width="60" height="43" fill="#fee090" stroke="#fee090" stroke-width="0"/>
		<rect x="48" y="43" width="60" height="68" fill="none" stroke="#f46d43" stroke-width="2"/>
		<line x1="48" y1="68" x2="108" y2="68" stroke="#f46d43" stroke-width="1"/>
	</g>
	<text x="53" y="60.7" fill="#000000" font-family="Verdana" font-size="12">NATURE</text>
	<text x="53" y="85.8" fill="#000000" font-family="Verdana" font-size="12">id</text>
	<line x1="53" y1="88" x2="65" y2="88" stroke="#000000" stroke-width="1"/>
	<text x="53" y="102.8" fill="#000000" font-family="Verdana" font-size="12">nom</text>
</g>

<!-- Entity UTILISATEUR -->
<g id="entity-UTILISATEUR">
	<g id="frame-UTILISATEUR">
		<rect x="140" y="9" width="130" height="25" fill="#fdae61" stroke="#fdae61" stroke-width="0"/>
		<rect x="140" y="34.0" width="130" height="111" fill="#fee090" stroke="#fee090" stroke-width="0"/>
		<rect x="140" y="9" width="130" height="136" fill="none" stroke="#f46d43" stroke-width="2"/>
		<line x1="140" y1="34" x2="270" y2="34" stroke="#f46d43" stroke-width="1"/>
	</g>
	<text x="163" y="26.7" fill="#000000" font-family="Verdana" font-size="12">UTILISATEUR</text>
	<text x="145" y="51.7" fill="#000000" font-family="Verdana" font-size="12">id</text>
	<line x1="145" y1="54" x2="157" y2="54" stroke="#000000" stroke-width="1"/>
	<text x="145" y="68.7" fill="#000000" font-family="Verdana" font-size="12">nom</text>
	<text x="145" y="85.8" fill="#000000" font-family="Verdana" font-size="12">login</text>
	<text x="145" y="102.8" fill="#000000" font-family="Verdana" font-size="12">mdp</text>
	<text x="145" y="119.8" fill="#000000" font-family="Verdana" font-size="12">emploi</text>
	<text x="145" y="136.8" fill="#000000" font-family="Verdana" font-size="12">niveau_autorisation</text>
</g>

<!-- Entity MODULE -->
<g id="entity-MODULE">
	<g id="frame-MODULE">
		<rect x="396" y="245" width="100" height="25" fill="#fdae61" stroke="#fdae61" stroke-width="0"/>
		<rect x="396" y="270.0" width="100" height="127" fill="#fee090" stroke="#fee090" stroke-width="0"/>
		<rect x="396" y="245" width="100" height="152" fill="none" stroke="#f46d43" stroke-width="2"/>
		<line x1="396" y1="270" x2="496" y2="270" stroke="#f46d43" stroke-width="1"/>
	</g>
	<text x="419" y="262.7" fill="#000000" font-family="Verdana" font-size="12">MODULE</text>
	<text x="401" y="287.7" fill="#000000" font-family="Verdana" font-size="12">id</text>
	<line x1="401" y1="290" x2="413" y2="290" stroke="#000000" stroke-width="1"/>
	<text x="401" y="304.7" fill="#000000" font-family="Verdana" font-size="12">nature_id</text>
	<text x="401" y="321.8" fill="#000000" font-family="Verdana" font-size="12">pa</text>
	<text x="401" y="338.8" fill="#000000" font-family="Verdana" font-size="12">pv</text>
	<text x="401" y="355.8" fill="#000000" font-family="Verdana" font-size="12">quantite_stock</text>
	<text x="401" y="372.8" fill="#000000" font-family="Verdana" font-size="12">cctp_chemin</text>
	<text x="401" y="389.8" fill="#000000" font-family="Verdana" font-size="12">cp_chemin</text>
</g>

<!-- Entity CLIENT -->
<g id="entity-CLIENT">
	<g id="frame-CLIENT">
		<rect x="615" y="497" width="124" height="25" fill="#fdae61" stroke="#fdae61" stroke-width="0"/>
		<rect x="615" y="522.0" width="124" height="127" fill="#fee090" stroke="#fee090" stroke-width="0"/>
		<rect x="615" y="497" width="124" height="152" fill="none" stroke="#f46d43" stroke-width="2"/>
		<line x1="615" y1="522" x2="739" y2="522" stroke="#f46d43" stroke-width="1"/>
	</g>
	<text x="654" y="514.7" fill="#000000" font-family="Verdana" font-size="12">CLIENT</text>
	<text x="620" y="539.7" fill="#000000" font-family="Verdana" font-size="12">id</text>
	<line x1="620" y1="542" x2="632" y2="542" stroke="#000000" stroke-width="1"/>
	<text x="620" y="556.7" fill="#000000" font-family="Verdana" font-size="12">denomination</text>
	<text x="620" y="573.8" fill="#000000" font-family="Verdana" font-size="12">comp_destinataire</text>
	<text x="620" y="590.8" fill="#000000" font-family="Verdana" font-size="12">com_geo</text>
	<text x="620" y="607.8" fill="#000000" font-family="Verdana" font-size="12">rue</text>
	<text x="620" y="624.8" fill="#000000" font-family="Verdana" font-size="12">cp</text>
	<text x="620" y="641.8" fill="#000000" font-family="Verdana" font-size="12">ville</text>
</g>

<!-- Entity COMMANDE -->
<g id="entity-COMMANDE">
	<g id="frame-COMMANDE">
		<rect x="520" y="783" width="84" height="25" fill="#fdae61" stroke="#fdae61" stroke-width="0"/>
		<rect x="520" y="808.0" width="84" height="59" fill="#fee090" stroke="#fee090" stroke-width="0"/>
		<rect x="520" y="783" width="84" height="84" fill="none" stroke="#f46d43" stroke-width="2"/>
		<line x1="520" y1="808" x2="604" y2="808" stroke="#f46d43" stroke-width="1"/>
	</g>
	<text x="525" y="800.7" fill="#000000" font-family="Verdana" font-size="12">COMMANDE</text>
	<text x="525" y="825.8" fill="#000000" font-family="Verdana" font-size="12">id</text>
	<line x1="525" y1="828" x2="537" y2="828" stroke="#000000" stroke-width="1"/>
	<text x="525" y="842.8" fill="#000000" font-family="Verdana" font-size="12">date</text>
	<text x="525" y="859.8" fill="#000000" font-family="Verdana" font-size="12">prix</text>
</g>

<!-- Entity ARTICLE -->
<g id="entity-ARTICLE">
	<g id="frame-ARTICLE">
		<rect x="275" y="623" width="100" height="25" fill="#fdae61" stroke="#fdae61" stroke-width="0"/>
		<rect x="275" y="648.0" width="100" height="127" fill="#fee090" stroke="#fee090" stroke-width="0"/>
		<rect x="275" y="623" width="100" height="152" fill="none" stroke="#f46d43" stroke-width="2"/>
		<line x1="275" y1="648" x2="375" y2="648" stroke="#f46d43" stroke-width="1"/>
	</g>
	<text x="298" y="640.7" fill="#000000" font-family="Verdana" font-size="12">ARTICLE</text>
	<text x="280" y="665.7" fill="#000000" font-family="Verdana" font-size="12">id</text>
	<line x1="280" y1="668" x2="292" y2="668" stroke="#000000" stroke-width="1"/>
	<text x="280" y="682.7" fill="#000000" font-family="Verdana" font-size="12">nom</text>
	<text x="280" y="699.8" fill="#000000" font-family="Verdana" font-size="12">pa</text>
	<text x="280" y="716.8" fill="#000000" font-family="Verdana" font-size="12">pv</text>
	<text x="280" y="733.8" fill="#000000" font-family="Verdana" font-size="12">stockable</text>
	<text x="280" y="750.8" fill="#000000" font-family="Verdana" font-size="12">quantite_stock</text>
	<text x="280" y="767.8" fill="#000000" font-family="Verdana" font-size="12">emplacement</text>
</g>

<!-- Entity GAMME -->
<g id="entity-GAMME">
	<g id="frame-GAMME">
		<rect x="408" y="9" width="76" height="25" fill="#fdae61" stroke="#fdae61" stroke-width="0"/>
		<rect x="408" y="34.0" width="76" height="111" fill="#fee090" stroke="#fee090" stroke-width="0"/>
		<rect x="408" y="9" width="76" height="136" fill="none" stroke="#f46d43" stroke-width="2"/>
		<line x1="408" y1="34" x2="484" y2="34" stroke="#f46d43" stroke-width="1"/>
	</g>
	<text x="423" y="26.7" fill="#000000" font-family="Verdana" font-size="12">GAMME</text>
	<text x="413" y="51.7" fill="#000000" font-family="Verdana" font-size="12">id</text>
	<line x1="413" y1="54" x2="425" y2="54" stroke="#000000" stroke-width="1"/>
	<text x="413" y="68.7" fill="#000000" font-family="Verdana" font-size="12">nom</text>
	<text x="413" y="85.8" fill="#000000" font-family="Verdana" font-size="12">finition</text>
	<text x="413" y="102.8" fill="#000000" font-family="Verdana" font-size="12">isolant</text>
	<text x="413" y="119.8" fill="#000000" font-family="Verdana" font-size="12">couverture</text>
	<text x="413" y="136.8" fill="#000000" font-family="Verdana" font-size="12">qualite</text>
</g>

<!-- Entity DEVIS -->
<g id="entity-DEVIS">
	<g id="frame-DEVIS">
		<rect x="641" y="253" width="72" height="25" fill="#fdae61" stroke="#fdae61" stroke-width="0"/>
		<rect x="641" y="278.0" width="72" height="111" fill="#fee090" stroke="#fee090" stroke-width="0"/>
		<rect x="641" y="253" width="72" height="136" fill="none" stroke="#f46d43" stroke-width="2"/>
		<line x1="641" y1="278" x2="713" y2="278" stroke="#f46d43" stroke-width="1"/>
	</g>
	<text x="657" y="270.7" fill="#000000" font-family="Verdana" font-size="12">DEVIS</text>
	<text x="646" y="295.7" fill="#000000" font-family="Verdana" font-size="12">id</text>
	<line x1="646" y1="298" x2="658" y2="298" stroke="#000000" stroke-width="1"/>
	<text x="646" y="312.7" fill="#000000" font-family="Verdana" font-size="12">nom</text>
	<text x="646" y="329.8" fill="#000000" font-family="Verdana" font-size="12">statut</text>
	<text x="646" y="346.8" fill="#000000" font-family="Verdana" font-size="12">ref_client</text>
	<text x="646" y="363.8" fill="#000000" font-family="Verdana" font-size="12">ref_projet</text>
	<text x="646" y="380.8" fill="#000000" font-family="Verdana" font-size="12">date</text>
</g>
</svg>